<svg width="72" height="120" viewBox="0 0 72 120" fill="none" xmlns="http://www.w3.org/2000/svg">
<path fill-rule="evenodd" clip-rule="evenodd" d="M36.5007 13.8369C21.5008 13.8369 6.50077 21.5369 2.00078 34.1369C0.569522 37.7525 -0.106721 41.6227 0.0136619 45.5093C0.134045 49.396 1.04851 53.2169 2.70078 56.737C6.4983 63.4438 11.4005 69.4616 17.2008 74.537C19.7508 77.137 21.8508 79.187 21.9508 81.237C21.96 81.5535 22.0845 81.8557 22.3008 82.087H18.9008C18.4706 82.0447 18.041 82.173 17.7044 82.4441C17.3678 82.7153 17.1511 83.1077 17.1008 83.537C17.1006 83.8516 17.1962 84.1588 17.3748 84.4178C17.5534 84.6768 17.8066 84.8753 18.1008 84.987C17.8922 85.0586 17.7027 85.177 17.5467 85.3329C17.3908 85.4889 17.2724 85.6784 17.2008 85.887C16.6566 86.8295 16.3701 87.8986 16.3701 88.987C16.3701 90.0753 16.6566 91.1444 17.2008 92.087C18.0558 93.347 19.2058 94.377 20.5508 95.087C20.2508 96.7403 20.0841 98.407 20.0508 100.087C20.0358 101.537 20.3958 102.972 21.1008 104.237C22.0708 105.857 23.5208 107.137 25.2508 107.887C25.5408 108.014 25.8408 108.114 26.1508 108.187C25.9512 109.96 26.0697 111.755 26.5007 113.487C27.0244 115.07 27.9353 116.496 29.1507 117.637C30.3157 118.587 31.6607 119.302 33.1007 119.737C34.5973 120.087 36.1542 120.087 37.6507 119.737C39.2333 119.491 40.6966 118.748 41.8291 117.615C42.9616 116.483 43.7046 115.02 43.9507 113.437C44.0189 113.201 44.0393 112.953 44.0106 112.709C43.9819 112.464 43.9048 112.228 43.7837 112.014C43.6627 111.8 43.5001 111.612 43.3056 111.461C43.111 111.311 42.8884 111.2 42.6507 111.137C42.1807 111.027 41.6866 111.101 41.2687 111.342C40.8509 111.584 40.5405 111.975 40.4007 112.437C40.1565 112.934 39.7894 113.36 39.3344 113.675C38.8794 113.99 38.3515 114.183 37.8007 114.237C37.1081 114.273 36.4145 114.188 35.7507 113.987C34.7015 113.797 33.7096 113.369 32.8507 112.737C31.9685 112.292 31.2378 111.596 30.7507 110.737C30.5198 110.204 30.3358 109.652 30.2007 109.087L32.2007 109.337C34.8674 109.537 37.5341 109.537 40.2007 109.337C43.2285 109.042 46.1253 107.955 48.6007 106.187C50.1541 104.956 51.3067 103.291 51.912 101.404C52.5174 99.5165 52.5483 97.4919 52.0007 95.587C53.4174 94.9795 54.7195 94.134 55.8507 93.087C56.6637 92.412 57.2419 91.4968 57.5025 90.4727C57.763 89.4487 57.6923 88.3684 57.3007 87.387C57.2488 87.1531 57.1493 86.9324 57.0086 86.7385C56.8679 86.5446 56.6889 86.3817 56.4826 86.2599C56.2764 86.138 56.0473 86.0598 55.8096 86.03C55.5719 86.0003 55.3306 86.0197 55.1007 86.087C54.864 86.1454 54.6411 86.2501 54.445 86.395C54.2488 86.5399 54.0833 86.7221 53.9578 86.9312C53.8323 87.1403 53.7495 87.3722 53.7139 87.6134C53.6784 87.8547 53.6909 88.1006 53.7507 88.337C54.0007 89.337 53.5007 89.437 52.9007 89.987C51.2532 90.9815 49.412 91.6122 47.5007 91.837C43.8507 92.502 40.1507 92.802 36.4507 92.737C34.2507 92.867 32.0507 92.867 29.8507 92.737C29.2507 92.737 22.0508 92.337 20.5008 90.337C20.2132 89.9463 20.0301 89.4886 19.9689 89.0074C19.9076 88.5261 19.9702 88.0372 20.1508 87.587C20.2518 87.3028 20.2678 86.9954 20.1968 86.7023C20.1257 86.4092 19.9707 86.1433 19.7508 85.937C23.7308 86.907 27.7474 87.6736 31.8007 88.237C33.7441 88.4603 35.6941 88.577 37.6507 88.587C39.6207 88.587 41.5874 88.487 43.5507 88.287C48.1682 87.8144 52.7153 86.8077 57.1007 85.287C57.5781 85.1676 57.9885 84.8635 58.2417 84.4416C58.4949 84.0196 58.5701 83.5144 58.4507 83.037C58.3314 82.5596 58.0273 82.1491 57.6053 81.896C57.1833 81.6428 56.6781 81.5676 56.2007 81.687C55.1507 81.687 54.1007 81.687 53.0507 82.037C54.0274 79.8636 55.2274 77.8136 56.6507 75.887C62.2552 68.8603 66.7877 61.0421 70.1007 52.687C72.0022 47.0428 72.0022 40.9311 70.1007 35.2869C65.2007 20.5369 51.0007 13.7369 36.5007 13.8369ZM36.5007 98.837C40.4048 98.7123 44.2738 98.0563 48.0007 96.887C48.0747 97.8524 47.8971 98.8206 47.4852 99.6969C47.0734 100.573 46.4413 101.328 45.6507 101.887C43.7638 102.784 41.6885 103.212 39.6007 103.137C37.2007 103.267 34.8007 103.267 32.4007 103.137C30.7155 103.218 29.028 103.033 27.4008 102.587C26.5045 102.44 25.6953 101.964 25.1313 101.252C24.5673 100.54 24.289 99.6431 24.3508 98.737V97.087C28.3564 98.2914 32.5179 98.898 36.7007 98.887L36.5007 98.837ZM65.3007 50.937C62.4268 58.9432 58.3464 66.4634 53.2007 73.237C51.333 75.9414 49.9147 78.9299 49.0007 82.087H24.8008C25.0238 81.8161 25.1629 81.4858 25.2008 81.137C24.4347 77.5985 22.5396 74.4048 19.8008 72.037C14.5383 67.1504 10.1723 61.3799 6.90077 54.9869C5.61264 52.0205 4.94795 48.821 4.94795 45.5869C4.94795 42.3529 5.61264 39.1534 6.90077 36.1869C11.2508 25.6369 24.0008 19.9869 36.5507 19.9869C49.1007 19.9869 60.6507 24.9869 65.1007 36.7869C66.7857 41.3487 66.9263 46.3376 65.5007 50.9869L65.3007 50.937ZM12.4508 6.68693C12.5908 7.2536 12.8074 7.78693 13.1008 8.28693C13.3773 8.7796 13.6951 9.24794 14.0508 9.68693C14.0508 9.68693 17.7508 14.0369 19.0508 13.2369C20.3508 12.4369 19.0508 7.08693 19.0508 6.93693C18.8971 6.39604 18.6789 5.87562 18.4008 5.38693C18.1859 4.91827 17.9352 4.46693 17.6508 4.03693C14.1508 -0.36307 13.4008 -0.26307 12.6508 0.236931C11.9008 0.736931 10.8508 1.28693 12.4508 6.68693Z" fill="#599FF9"/>
</svg>
