<svg width="120" height="85" viewBox="0 0 120 85" fill="none" xmlns="http://www.w3.org/2000/svg">
<path fill-rule="evenodd" clip-rule="evenodd" d="M46.1571 27.3783L58.1914 16.4926C60.9591 13.994 64.2371 12.1271 67.7982 11.0215C71.3592 9.9159 75.1181 9.59797 78.8143 10.0898L94.74 12.1983L116.837 0.258332C117.164 0.0816139 117.53 -0.00724557 117.902 0.000461936C118.273 0.00816944 118.636 0.112178 118.954 0.302298C119.273 0.492417 119.537 0.762124 119.721 1.08499C119.904 1.40785 120 1.77279 120 2.14405V42.7555C120 44.1182 119.675 45.4612 119.051 46.6731C118.428 47.8851 117.525 48.9309 116.417 49.724L101.537 60.3612L85.4229 46.8526C88.5691 45.7237 91.4076 43.8744 93.7114 41.4526C94.2005 40.9461 94.585 40.3482 94.843 39.6931C95.1011 39.0379 95.2275 38.3384 95.2152 37.6344C95.2028 36.9304 95.052 36.2357 94.7711 35.59C94.4903 34.9443 94.0851 34.3603 93.5786 33.8712C93.072 33.3821 92.4742 32.9976 91.819 32.7396C91.1639 32.4816 90.4643 32.3551 89.7604 32.3675C89.0564 32.3798 88.3617 32.5307 87.716 32.8115C87.0703 33.0923 86.4862 33.4975 85.9971 34.004C84.4143 35.6669 82.5486 36.7126 80.4 37.1412C78.5229 37.5098 76.1314 37.4498 73.1229 36.524L69.3 33.3098L58.6286 41.9583C56.6818 43.5 54.2135 44.2273 51.7418 43.9875C49.2702 43.7478 46.9876 42.5596 45.3735 40.6726C43.7593 38.7855 42.9392 36.3464 43.0853 33.8675C43.2315 31.3885 44.3325 29.0627 46.1571 27.3783ZM38.9743 19.424L47.6143 11.6155C43.8983 10.6119 40.0085 10.4276 36.2143 11.0755L20.4857 13.8012L3.22286 4.50976C2.88955 4.33008 2.51528 4.24008 2.13672 4.24857C1.75816 4.25706 1.3883 4.36374 1.06337 4.55818C0.738452 4.75261 0.469615 5.02813 0.283206 5.35772C0.0967957 5.68731 -0.00079182 6.05968 4.8388e-06 6.43833V42.7469C4.8388e-06 45.644 1.43143 48.3526 3.82286 49.9812L50.58 81.8583C53.5343 83.876 57.0364 84.9389 60.6138 84.9037C64.1912 84.8684 67.6717 83.7367 70.5857 81.6612L92.0657 66.4126L69.18 47.2126L65.3657 50.2812C61.2476 53.5616 56.0168 55.115 50.7757 54.614C45.5347 54.113 40.6928 51.5967 37.2707 47.5956C33.8487 43.5945 32.1137 38.421 32.4315 33.1657C32.7493 27.9104 35.095 22.9837 38.9743 19.424Z" fill="#599FF9"/>
</svg>
