<svg width="72" height="76" viewBox="0 0 72 76" fill="none" xmlns="http://www.w3.org/2000/svg">
<path d="M11.59 1.43804L1.70508 59.13H62.9915L69.4617 44.5722H32.6179" stroke="#5A4AE8" stroke-width="2.87561" stroke-linecap="round"/>
<path d="M17.8804 45.2911L25.7883 1.43804H40.7315L26.6869 73.8892H56.8808" stroke="#599FF9" stroke-width="2.87561" stroke-linecap="round"/>
<path d="M55.2554 21.2883C56.6284 21.301 57.7735 22.2705 58.5356 23.1399C58.9257 23.5848 59.2369 24.0272 59.4497 24.3577C59.5293 24.4812 59.5931 24.5912 59.645 24.679C59.7625 24.6624 59.9142 24.6417 60.0923 24.6243C60.5241 24.5819 61.117 24.5496 61.7515 24.5891C62.9823 24.6657 64.5432 25.0266 65.2456 26.3293C65.7773 27.3157 65.9072 28.2389 65.9028 28.9172C65.9006 29.2555 65.8645 29.5335 65.8286 29.7297C65.8265 29.7414 65.8229 29.7529 65.8208 29.7639C65.8686 29.7962 65.9236 29.8319 65.9819 29.8733C66.2127 30.0369 66.5203 30.2719 66.8218 30.553C67.121 30.832 67.4275 31.1694 67.644 31.5403C67.8597 31.9097 68.0066 32.3495 67.9204 32.8118C67.8508 33.1852 67.641 33.5064 67.4028 33.7668C67.1626 34.0295 66.8717 34.2545 66.6001 34.4348C66.327 34.6161 66.0621 34.7598 65.8667 34.8577C65.7688 34.9067 65.6871 34.9449 65.6294 34.9709C65.6006 34.9839 65.5771 34.9943 65.561 35.0012C65.5533 35.0046 65.5469 35.0071 65.5425 35.009C65.5402 35.01 65.538 35.0104 65.5366 35.011L65.5347 35.0129L65.4634 35.0422H43.5806L43.4819 34.9719L43.7017 34.6584L43.481 34.9719L43.48 34.9709L43.478 34.97C43.4763 34.9687 43.4742 34.9663 43.4712 34.9641C43.465 34.9597 43.456 34.9537 43.4448 34.9456C43.4223 34.9292 43.3896 34.9057 43.3491 34.8752C43.2681 34.8142 43.154 34.7253 43.019 34.6145C42.7501 34.3936 42.3944 34.0798 42.0532 33.7112C41.7142 33.3448 41.3751 32.9094 41.1558 32.4456C40.937 31.9828 40.8189 31.4508 40.9888 30.9231C41.1733 30.3506 41.6038 29.9759 42.0864 29.7356C42.5658 29.497 43.1273 29.3742 43.6431 29.3118C44.1623 29.2489 44.6591 29.2443 45.0239 29.2551C45.043 29.2557 45.0622 29.2564 45.0806 29.2571C45.0294 29.0329 44.9771 28.7494 44.9458 28.427C44.8685 27.63 44.9152 26.5625 45.4487 25.5637C45.8405 24.8306 46.4421 24.4546 47.106 24.3166C47.7521 24.1825 48.4447 24.2753 49.0571 24.4387C49.6742 24.6034 50.2419 24.8486 50.6519 25.05C50.766 25.1061 50.8687 25.1589 50.9575 25.2063C50.9972 25.1244 51.0412 25.0309 51.0933 24.9299C51.2964 24.5356 51.5952 24.0067 51.9731 23.4768C52.3496 22.949 52.8148 22.4059 53.356 21.9934C53.8975 21.5806 54.5388 21.2818 55.2554 21.2883ZM55.2485 22.0549C54.7574 22.0505 54.2784 22.2549 53.8208 22.6038C53.3631 22.9528 52.9489 23.4291 52.5972 23.9221C52.2468 24.4133 51.967 24.9077 51.7749 25.2805C51.6791 25.4664 51.6064 25.6214 51.5571 25.7288C51.5326 25.7822 51.5136 25.8239 51.5015 25.8518C51.4954 25.8656 51.4907 25.8763 51.4878 25.8831C51.4864 25.8864 51.4855 25.8894 51.4849 25.8909L51.4839 25.8918L51.311 26.3088L50.9272 26.0706L50.9263 26.0696C50.9249 26.0687 50.9227 26.0667 50.9194 26.0647C50.913 26.0608 50.9026 26.0551 50.8892 26.0471C50.8618 26.0308 50.8204 26.0059 50.7671 25.9758C50.6602 25.9155 50.5047 25.8313 50.314 25.7375C49.9304 25.5491 49.4119 25.3262 48.8599 25.179C48.3031 25.0304 47.7429 24.9678 47.2622 25.0676C46.7994 25.1637 46.3993 25.4108 46.1245 25.925C45.6886 26.741 45.6393 27.6388 45.7085 28.3528C45.7429 28.7072 45.8059 29.0091 45.8599 29.2209C45.8867 29.3264 45.9118 29.4089 45.9292 29.4641C45.9379 29.4916 45.9452 29.5125 45.9497 29.5256C45.952 29.5322 45.9526 29.5376 45.9536 29.5403L45.9546 29.5422L46.1694 30.1243L45.5522 30.0559V30.0549H45.5454C45.5396 30.0543 45.5302 30.0531 45.5181 30.052C45.4933 30.0497 45.4557 30.0459 45.4077 30.0422C45.3113 30.0349 45.1711 30.0268 45.0015 30.0217C44.6605 30.0116 44.2041 30.0157 43.7349 30.0725C43.2618 30.1298 42.7976 30.2383 42.4282 30.4221C42.0626 30.6041 41.8195 30.8436 41.7183 31.1575C41.6301 31.431 41.6762 31.7528 41.8491 32.1184C42.0216 32.4832 42.3033 32.852 42.6157 33.1897C42.926 33.5249 43.2534 33.8158 43.5054 34.0227C43.6309 34.1258 43.7374 34.2065 43.811 34.262C43.8168 34.2663 43.8223 34.2706 43.8276 34.2747H48.3511V33.4036L46.938 31.9905C46.7819 32.1008 46.5919 32.1662 46.3862 32.1663C45.857 32.1663 45.4274 31.7374 45.4272 31.2082C45.4272 30.6789 45.8569 30.2493 46.3862 30.2493C46.9155 30.2494 47.3442 30.679 47.3442 31.2082C47.3442 31.2413 47.3416 31.2738 47.3384 31.3059L49.1177 33.0852V34.2747H51.8491V31.0373L49.9243 28.8079C49.7965 28.871 49.6527 28.9075 49.5005 28.9075C48.9714 28.9073 48.5426 28.4786 48.5425 27.9495C48.5425 27.4202 48.9713 26.9907 49.5005 26.9905C50.0298 26.9905 50.4595 27.4201 50.4595 27.9495C50.4594 28.0404 50.4451 28.1279 50.4214 28.2112L52.5229 30.6457L52.6167 30.7532V34.2747H54.5093V26.5588C54.2363 26.3899 54.0532 26.089 54.0532 25.7444C54.0534 25.2151 54.4829 24.7864 55.0122 24.7864C55.5414 24.7865 55.9701 25.2152 55.9702 25.7444C55.9702 26.1821 55.6768 26.5506 55.2759 26.6653V34.2747H58.5112V29.8381L58.6089 29.7288L60.5239 27.6008C60.4625 27.4745 60.4273 27.3328 60.4272 27.1829C60.4272 26.6535 60.8569 26.2239 61.3862 26.2239C61.9154 26.2241 62.3442 26.6536 62.3442 27.1829C62.344 27.7119 61.9153 28.1407 61.3862 28.1409C61.2891 28.1409 61.1953 28.1257 61.1069 28.0989L59.2778 30.1321V34.2747H62.2729V32.5618L62.563 32.4895L64.2173 32.0725C64.2644 31.5872 64.6747 31.2082 65.1724 31.2082C65.7014 31.2085 66.1303 31.6371 66.1304 32.1663C66.1304 32.6954 65.7015 33.125 65.1724 33.1252C64.8874 33.1252 64.6321 32.9995 64.4565 32.802L63.0396 33.1594V34.2747H65.3071C65.3092 34.2737 65.3118 34.2727 65.314 34.2717C65.3636 34.2493 65.4363 34.216 65.5239 34.1721C65.7005 34.0837 65.9363 33.9554 66.1763 33.7961C66.4179 33.6357 66.654 33.4498 66.8374 33.2493C67.0227 33.0466 67.1339 32.8513 67.1675 32.6711C67.2071 32.4581 67.147 32.2097 66.9819 31.927C66.8178 31.6458 66.5696 31.3664 66.2983 31.1135C66.0294 30.8628 65.7504 30.6502 65.5376 30.4993C65.4317 30.4241 65.3432 30.3643 65.2817 30.3245C65.2511 30.3046 65.2272 30.2894 65.2114 30.2795C65.2036 30.2747 65.1975 30.2711 65.1938 30.2688C65.1922 30.2678 65.1907 30.2673 65.1899 30.2668L64.9292 30.1096L65.022 29.8206C65.0224 29.8192 65.0238 29.8165 65.0249 29.8127C65.0273 29.8044 65.0307 29.7901 65.0356 29.7707C65.0456 29.7318 65.0602 29.6713 65.0747 29.592C65.1038 29.4332 65.1344 29.1993 65.1362 28.9114C65.1399 28.3362 65.0301 27.5457 64.5708 26.6936C64.0754 25.7745 62.9048 25.4285 61.7036 25.3538C61.1221 25.3176 60.5728 25.3482 60.1675 25.3879C59.9655 25.4078 59.8005 25.4296 59.687 25.4465C59.6304 25.455 59.5862 25.4621 59.5571 25.467C59.5429 25.4695 59.5318 25.4717 59.5249 25.4729C59.5219 25.4734 59.5195 25.4736 59.5181 25.4739L59.5161 25.4748L59.2378 25.5276L59.106 25.2766L59.105 25.2756C59.1044 25.2745 59.1035 25.2724 59.1021 25.2698C59.0991 25.2643 59.0946 25.2557 59.0884 25.2444C59.0758 25.2216 59.0563 25.187 59.0308 25.1428C58.9797 25.0544 58.9032 24.9264 58.8042 24.7727C58.6055 24.4642 58.3177 24.0544 57.9595 23.6457C57.2247 22.8075 56.2733 22.0645 55.2485 22.0549Z" fill="url(#paint0_linear_114_4762)"/>
<defs>
<linearGradient id="paint0_linear_114_4762" x1="65.1711" y1="31.2084" x2="65.1711" y2="33.1253" gradientUnits="userSpaceOnUse">
<stop stop-color="#5A4AE8"/>
<stop offset="1" stop-color="#599FF9" stop-opacity="0.596078"/>
</linearGradient>
</defs>
</svg>
